<?xml version="1.0" encoding="utf-8"?>
<!-- Generator: Adobe Illustrator 27.8.0, SVG Export Plug-In . SVG Version: 6.00 Build 0)  -->
<svg version="1.1" id="Layer_1" xmlns="http://www.w3.org/2000/svg" xmlns:xlink="http://www.w3.org/1999/xlink" x="0px" y="0px"
	 viewBox="0 0 177 150" style="enable-background:new 0 0 177 150;" xml:space="preserve">
<style type="text/css">
	.st0{fill:#272327;}
</style>
<g>
	<g>
		<path class="st0" d="M133.5,72.6c-0.2-0.2-0.4-0.3-0.7-0.5c-0.8-10.9-5.5-21-13.4-28.6c-8.2-7.9-19.1-12.3-30.5-12.3
			s-22.2,4.4-30.5,12.3c-7.9,7.6-12.7,17.7-13.4,28.6c-0.2,0.2-0.4,0.3-0.7,0.5C38.4,77.5,35,84,35,90.9s3.4,13.4,9.5,18.3
			c5.4,4.3,12.2,6.7,18.8,6.8c1.3,0,2.5-0.5,3.4-1.4c0.9-0.9,1.4-2.1,1.4-3.4V70.7c0-1.3-0.5-2.5-1.4-3.4c-0.9-0.9-2.1-1.4-3.4-1.4
			c-0.5,0-1,0-1.5,0C65.7,54.4,76.6,46.4,89,46.4s23.3,8,27.3,19.5c-0.5,0-1,0-1.5,0c-1.3,0-2.5,0.5-3.4,1.4
			c-0.9,0.9-1.4,2.1-1.4,3.4v40.5c0,1.3,0.5,2.5,1.4,3.4c0.9,0.9,2.1,1.4,3.4,1.4h0c6.6,0,13.4-2.5,18.8-6.8
			c6.1-4.9,9.5-11.4,9.5-18.3C143,84,139.6,77.5,133.5,72.6z"/>
	</g>
</g>
</svg>
